<mxfile host="65bd71144e">
    <diagram id="cIF2esaKYnkqIEk28z96" name="Page-1">
        <mxGraphModel dx="1499" dy="1006" grid="1" gridSize="10" guides="1" tooltips="1" connect="1" arrows="1" fold="1" page="1" pageScale="1" pageWidth="827" pageHeight="1169" math="0" shadow="0">
            <root>
                <mxCell id="0"/>
                <mxCell id="1" parent="0"/>
                <mxCell id="2" value="Database Tools" style="swimlane;fillColor=#5BB6FC;" parent="1" vertex="1">
                    <mxGeometry x="260" y="10" width="390" height="300" as="geometry"/>
                </mxCell>
                <mxCell id="3" value="" style="sketch=0;outlineConnect=0;fontColor=#232F3E;gradientColor=none;fillColor=#5BB6FC;strokeColor=none;dashed=0;verticalLabelPosition=bottom;verticalAlign=top;align=center;html=1;fontSize=12;fontStyle=0;aspect=fixed;pointerEvents=1;shape=mxgraph.aws4.waf_bot;" parent="2" vertex="1">
                    <mxGeometry x="20" y="140" width="40" height="40" as="geometry"/>
                </mxCell>
                <mxCell id="5" value="&lt;h1 style=&quot;line-height: 26%;&quot;&gt;&lt;font style=&quot;font-size: 15px;&quot;&gt;Prompt&lt;/font&gt;&lt;/h1&gt;&lt;p style=&quot;line-height: 0%;&quot;&gt;The Schema:&lt;/p&gt;" style="text;html=1;strokeColor=none;fillColor=none;spacing=5;spacingTop=-20;whiteSpace=wrap;overflow=hidden;rounded=0;" parent="2" vertex="1">
                    <mxGeometry x="70" y="140.15" width="90" height="50" as="geometry"/>
                </mxCell>
                <mxCell id="6" value="" style="aspect=fixed;html=1;points=[];align=center;image;fontSize=12;image=img/lib/azure2/other/Worker_Container_App.svg;fillColor=#5BB6FC;" parent="2" vertex="1">
                    <mxGeometry x="-10" y="-10" width="43.27" height="42" as="geometry"/>
                </mxCell>
                <mxCell id="9" value="Table" style="shape=table;startSize=30;container=1;collapsible=1;childLayout=tableLayout;fixedRows=1;rowLines=0;fontStyle=1;align=center;resizeLast=1;" parent="2" vertex="1">
                    <mxGeometry x="154" y="32" width="200" height="120" as="geometry"/>
                </mxCell>
                <mxCell id="10" value="" style="shape=tableRow;horizontal=0;startSize=0;swimlaneHead=0;swimlaneBody=0;fillColor=none;collapsible=0;dropTarget=0;points=[[0,0.5],[1,0.5]];portConstraint=eastwest;top=0;left=0;right=0;bottom=1;" parent="9" vertex="1">
                    <mxGeometry y="30" width="200" height="30" as="geometry"/>
                </mxCell>
                <mxCell id="11" value="PK" style="shape=partialRectangle;connectable=0;fillColor=none;top=0;left=0;bottom=0;right=0;fontStyle=1;overflow=hidden;" parent="10" vertex="1">
                    <mxGeometry width="30" height="30" as="geometry">
                        <mxRectangle width="30" height="30" as="alternateBounds"/>
                    </mxGeometry>
                </mxCell>
                <mxCell id="12" value="UniqueID" style="shape=partialRectangle;connectable=0;fillColor=none;top=0;left=0;bottom=0;right=0;align=left;spacingLeft=6;fontStyle=5;overflow=hidden;" parent="10" vertex="1">
                    <mxGeometry x="30" width="170" height="30" as="geometry">
                        <mxRectangle width="170" height="30" as="alternateBounds"/>
                    </mxGeometry>
                </mxCell>
                <mxCell id="13" value="" style="shape=tableRow;horizontal=0;startSize=0;swimlaneHead=0;swimlaneBody=0;fillColor=none;collapsible=0;dropTarget=0;points=[[0,0.5],[1,0.5]];portConstraint=eastwest;top=0;left=0;right=0;bottom=0;" parent="9" vertex="1">
                    <mxGeometry y="60" width="200" height="30" as="geometry"/>
                </mxCell>
                <mxCell id="14" value="" style="shape=partialRectangle;connectable=0;fillColor=none;top=0;left=0;bottom=0;right=0;editable=1;overflow=hidden;" parent="13" vertex="1">
                    <mxGeometry width="30" height="30" as="geometry">
                        <mxRectangle width="30" height="30" as="alternateBounds"/>
                    </mxGeometry>
                </mxCell>
                <mxCell id="15" value="Row 1" style="shape=partialRectangle;connectable=0;fillColor=none;top=0;left=0;bottom=0;right=0;align=left;spacingLeft=6;overflow=hidden;" parent="13" vertex="1">
                    <mxGeometry x="30" width="170" height="30" as="geometry">
                        <mxRectangle width="170" height="30" as="alternateBounds"/>
                    </mxGeometry>
                </mxCell>
                <mxCell id="16" value="" style="shape=tableRow;horizontal=0;startSize=0;swimlaneHead=0;swimlaneBody=0;fillColor=none;collapsible=0;dropTarget=0;points=[[0,0.5],[1,0.5]];portConstraint=eastwest;top=0;left=0;right=0;bottom=0;" parent="9" vertex="1">
                    <mxGeometry y="90" width="200" height="30" as="geometry"/>
                </mxCell>
                <mxCell id="17" value="" style="shape=partialRectangle;connectable=0;fillColor=none;top=0;left=0;bottom=0;right=0;editable=1;overflow=hidden;" parent="16" vertex="1">
                    <mxGeometry width="30" height="30" as="geometry">
                        <mxRectangle width="30" height="30" as="alternateBounds"/>
                    </mxGeometry>
                </mxCell>
                <mxCell id="18" value="Row 2" style="shape=partialRectangle;connectable=0;fillColor=none;top=0;left=0;bottom=0;right=0;align=left;spacingLeft=6;overflow=hidden;" parent="16" vertex="1">
                    <mxGeometry x="30" width="170" height="30" as="geometry">
                        <mxRectangle width="170" height="30" as="alternateBounds"/>
                    </mxGeometry>
                </mxCell>
                <mxCell id="31" value="&lt;div style=&quot;font-family: Consolas, Courier, monospace; padding: 5px 10px; border-left: 5px solid rgb(208, 209, 208); border-radius: 6px; background: rgb(249, 249, 249); word-break: break-word; font-size: 14px; margin-bottom: 10px; text-align: left;&quot; class=&quot;rd_code&quot;&gt;&lt;div style=&quot;&quot; data-priority=&quot;&quot; class=&quot;&quot; id=&quot;rd_code_9&quot;&gt;&lt;div style=&quot;&quot; class=&quot;rd_cCodeBg&quot;&gt;&lt;div style=&quot;padding-left: 0px;&quot;&gt;&lt;font color=&quot;#0000ff&quot;&gt;The answer is 42&lt;/font&gt;&lt;/div&gt;&lt;/div&gt;&lt;/div&gt;&lt;/div&gt;&lt;div style=&quot;margin-bottom: 10px; color: rgb(68, 68, 68); font-family: Roboto, Helvetica, sans-serif; font-size: 14px; text-align: left; background-color: rgb(255, 255, 255);&quot;&gt;&lt;span style=&quot;line-height: 20px; color: rgb(102, 102, 102);&quot; class=&quot;rd_cntnt_snip&quot;&gt;&lt;/span&gt;&lt;/div&gt;" style="text;strokeColor=none;align=center;fillColor=none;html=1;verticalAlign=middle;whiteSpace=wrap;rounded=0;" parent="2" vertex="1">
                    <mxGeometry x="-106" y="170" width="260" height="90" as="geometry"/>
                </mxCell>
                <mxCell id="23" style="edgeStyle=none;html=1;" parent="1" source="7" edge="1">
                    <mxGeometry relative="1" as="geometry">
                        <mxPoint x="150" y="135" as="targetPoint"/>
                    </mxGeometry>
                </mxCell>
                <mxCell id="7" value="User" style="verticalLabelPosition=bottom;html=1;verticalAlign=top;align=center;strokeColor=none;fillColor=#00BEF2;shape=mxgraph.azure.user;" parent="1" vertex="1">
                    <mxGeometry x="40" y="110" width="47.5" height="50" as="geometry"/>
                </mxCell>
                <mxCell id="26" style="edgeStyle=none;html=1;" parent="1" source="8" target="5" edge="1">
                    <mxGeometry relative="1" as="geometry"/>
                </mxCell>
                <mxCell id="30" style="edgeStyle=none;html=1;" parent="1" source="8" edge="1">
                    <mxGeometry relative="1" as="geometry">
                        <mxPoint x="370" y="240" as="targetPoint"/>
                    </mxGeometry>
                </mxCell>
                <mxCell id="8" value="" style="verticalLabelPosition=bottom;html=1;verticalAlign=top;align=center;strokeColor=none;fillColor=#00BEF2;shape=mxgraph.azure.sql_database_sql_azure;" parent="1" vertex="1">
                    <mxGeometry x="700" y="92" width="47.5" height="50" as="geometry"/>
                </mxCell>
                <mxCell id="22" value="UI" style="shadow=0;dashed=0;html=1;strokeColor=none;fillColor=#4495D1;labelPosition=center;verticalLabelPosition=bottom;verticalAlign=top;align=center;outlineConnect=0;shape=mxgraph.veeam.interface;" parent="1" vertex="1">
                    <mxGeometry x="160" y="117.6" width="50" height="42.4" as="geometry"/>
                </mxCell>
                <mxCell id="24" value="Question&lt;br&gt;" style="whiteSpace=wrap;html=1;shape=mxgraph.basic.cloud_callout" parent="1" vertex="1">
                    <mxGeometry x="88" y="50" width="90" height="60" as="geometry"/>
                </mxCell>
                <mxCell id="29" style="edgeStyle=none;html=1;" parent="1" source="27" target="8" edge="1">
                    <mxGeometry relative="1" as="geometry"/>
                </mxCell>
                <mxCell id="27" value="&lt;div style=&quot;font-family: Consolas, Courier, monospace; padding: 5px 10px; border-left: 5px solid rgb(208, 209, 208); border-radius: 6px; background: rgb(249, 249, 249); word-break: break-word; font-size: 14px; margin-bottom: 10px; color: rgb(68, 68, 68); text-align: left;&quot; class=&quot;rd_code&quot;&gt;&lt;div data-priority=&quot;&quot; class=&quot;&quot; id=&quot;rd_code_9&quot;&gt;&lt;div class=&quot;rd_cCodeBg&quot;&gt;&lt;div style=&quot;padding-left: 0px;&quot;&gt;&lt;span style=&quot;color: rgb(0, 0, 255);&quot; class=&quot;rd_code_blu&quot;&gt;SELECT&lt;/span&gt;&amp;nbsp;CustomerName, City&amp;nbsp;&lt;span style=&quot;color: rgb(0, 0, 255);&quot; class=&quot;rd_code_blu&quot;&gt;FROM&lt;/span&gt;&amp;nbsp;Customers;&lt;/div&gt;&lt;div&gt;&lt;br&gt;&lt;/div&gt;&lt;/div&gt;&lt;/div&gt;&lt;/div&gt;&lt;div style=&quot;margin-bottom: 10px; color: rgb(68, 68, 68); font-family: Roboto, Helvetica, sans-serif; font-size: 14px; text-align: left; background-color: rgb(255, 255, 255);&quot;&gt;&lt;span style=&quot;line-height: 20px; color: rgb(102, 102, 102);&quot; class=&quot;rd_cntnt_snip&quot;&gt;&lt;/span&gt;&lt;/div&gt;" style="text;strokeColor=none;align=center;fillColor=none;html=1;verticalAlign=middle;whiteSpace=wrap;rounded=0;" parent="1" vertex="1">
                    <mxGeometry x="460" y="240" width="260" height="30" as="geometry"/>
                </mxCell>
                <mxCell id="28" style="edgeStyle=none;html=1;" parent="1" source="5" edge="1">
                    <mxGeometry relative="1" as="geometry">
                        <mxPoint x="490" y="220" as="targetPoint"/>
                    </mxGeometry>
                </mxCell>
            </root>
        </mxGraphModel>
    </diagram>
</mxfile>